<svg width="246" height="81" viewBox="0 0 246 81" fill="none" xmlns="http://www.w3.org/2000/svg">
<path d="M117.766 4.45729C151.615 -0.331552 182.813 -0.622915 205.883 2.76691C217.421 4.46236 226.899 7.07495 233.652 10.4862C240.421 13.9055 244.343 18.0674 245.014 22.813C245.686 27.5586 243.072 32.6451 237.517 37.8079C231.976 42.9587 223.595 48.0978 212.979 52.9275C191.755 62.5841 161.701 70.9585 127.852 75.7474C94.0033 80.5363 62.8054 80.8278 39.735 77.4379C28.1964 75.7424 18.7201 73.1297 11.9667 69.7184C5.19756 66.2991 1.27495 62.1375 0.603533 57.3918C-0.0678793 52.6461 2.54633 47.5596 8.10132 42.3968C13.6433 37.246 22.023 32.107 32.6384 27.2772C53.8629 17.6206 83.9173 9.2462 117.766 4.45729Z" stroke="#DEDFD6"/>
</svg>
